<?xml version="1.0" encoding="UTF-8"?>
<svg id="_图层_2" data-name="图层_2" xmlns="http://www.w3.org/2000/svg" width="6.25" height="14.7" viewBox="0 0 6.25 14.7">
  <defs>
    <style>
      .cls-1 {
        fill: #fff;
        fill-rule: evenodd;
      }
    </style>
  </defs>
  <g id="_图层_2-2" data-name="_图层_2">
    <g>
      <path class="cls-1" d="M5.41,2.37c0-1.18-1.01-2.37-2.37-2.37S.68,1.18.68,2.37c0,1.35,1.01,2.37,2.37,2.37s2.37-1.01,2.37-2.37Z"/>
      <path class="cls-1" d="M6.08,12.67c0-.34-.34-.68-.68-.68h-.68v-5.41c0-.51-.17-.68-.68-.68H.68c-.34,0-.68.17-.68.68v1.35c0,.34.34.51.68.51h.68v3.55h-.68c-.34,0-.68.34-.68.68v1.35c0,.34.34.68.68.68h4.9c.34,0,.68-.34.68-.68l-.17-1.35Z"/>
    </g>
  </g>
</svg>