<?xml version="1.0" encoding="UTF-8"?>
<svg id="_图层_2" data-name="图层_2" xmlns="http://www.w3.org/2000/svg" width="10.81" height="14.77" viewBox="0 0 10.81 14.77">
  <defs>
    <style>
      .cls-1 {
        fill: #fff;
      }
    </style>
  </defs>
  <g id="_图层_2-2" data-name="_图层_2">
    <path class="cls-1" d="M5.16,10.72h-.16c-.99,0-1.86.95-1.86,2.02,0,1.25,1.05,2.03,2.02,2.03,1.19,0,2.03-.83,2.03-2.03s-.83-2.02-2.03-2.02Z"/>
    <path class="cls-1" d="M6.81,0h-2.64C2.06,0,.19,1.71,0,3.84c0,1.06.86,1.69,1.69,1.69,1.06,0,1.69-.86,1.69-1.69,0-.45.33-.78.78-.78h2.64c.45,0,.78.33.78.78,0,.24-.13.57-.32.67l-2.98,1.82c-.58.39-.83.83-.83,1.47v.82c0,.87.82,1.7,1.69,1.7,1.04,0,1.67-.83,1.69-1.64l2.12-1.21h.02c1.14-.77,1.82-2.06,1.82-3.46v-.17c0-2.15-1.76-3.84-4-3.84Z"/>
  </g>
</svg>